# xmcd
#
# Track frame offsets:
#	182
#	10270
#	25477
#	35937
#	54162
#	69010
#	79677
#	95750
#	103460
#	122545
#	136095
#	156975
#	166877
#	182090
#	207097
#	221615
#	232740
#
# Disc length: 3278 seconds
#
# Revision: 0
# Processed by: cddbd v1.5.2PL0 Copyright (c) Steve Scherf et al.
# Submitted via: EasyCDDAExtractor 10.0.2.1
#
DISCID=e00ccc11
DTITLE=Henry Gray and Short Fuse - Don't start that Stuff
DYEAR=2000
DGENRE=Blues
TTITLE0=How Did You Do It
TTITLE1=Worried Life Blues
TTITLE2=Bright Lights, Big City
TTITLE3=Got My Mojo Working
TTITLE4=How Long
TTITLE5=They Raided the Joint
TTITLE6=How Many More Years
TTITLE7=Tutti Frutti No.1
TTITLE8=Shake a Hand
TTITLE9=The Night
TTITLE10=From Now On
TTITLE11=Everybody's Fishing
TTITLE12=Fannie Mae
TTITLE13=Don't Start That Stuff
TTITLE14=Dust My Broom
TTITLE15=Took Me a Long Time
TTITLE16=Mazotta Boogie
EXTD=
EXTT0=
EXTT1=
EXTT2=
EXTT3=
EXTT4=
EXTT5=
EXTT6=
EXTT7=
EXTT8=
EXTT9=
EXTT10=
EXTT11=
EXTT12=
EXTT13=
EXTT14=
EXTT15=
EXTT16=
PLAYORDER=
